<?xml version="1.0" encoding="UTF-8" standalone="no"?>
<!-- Created with Inkscape (http://www.inkscape.org/) -->

<svg
   xmlns:dc="http://purl.org/dc/elements/1.1/"
   xmlns:cc="http://creativecommons.org/ns#"
   xmlns:rdf="http://www.w3.org/1999/02/22-rdf-syntax-ns#"
   xmlns:svg="http://www.w3.org/2000/svg"
   xmlns="http://www.w3.org/2000/svg"
   xmlns:sodipodi="http://sodipodi.sourceforge.net/DTD/sodipodi-0.dtd"
   xmlns:inkscape="http://www.inkscape.org/namespaces/inkscape"
   width="1000"
   height="502.79648"
   id="svg4243"
   version="1.1"
   inkscape:version="0.48.5 r10040"
   sodipodi:docname="New document 9">
  <defs
     id="defs4245" />
  <sodipodi:namedview
     id="base"
     pagecolor="#ffffff"
     bordercolor="#666666"
     borderopacity="1.0"
     inkscape:pageopacity="0.0"
     inkscape:pageshadow="2"
     inkscape:zoom="0.76276382"
     inkscape:cx="514.77744"
     inkscape:cy="215.36659"
     inkscape:document-units="px"
     inkscape:current-layer="layer1"
     showgrid="false"
     fit-margin-left="0.5"
     fit-margin-bottom="0.5"
     fit-margin-top="0.5"
     fit-margin-right="0.5"
     inkscape:window-width="1054"
     inkscape:window-height="986"
     inkscape:window-x="863"
     inkscape:window-y="-10"
     inkscape:window-maximized="0" />
  <metadata
     id="metadata4248">
    <rdf:RDF>
      <cc:Work
         rdf:about="">
        <dc:format>image/svg+xml</dc:format>
        <dc:type
           rdf:resource="http://purl.org/dc/dcmitype/StillImage" />
        <dc:title></dc:title>
      </cc:Work>
    </rdf:RDF>
  </metadata>
  <g
     inkscape:label="Layer 1"
     inkscape:groupmode="layer"
     id="layer1"
     transform="translate(297.14287,-275.24966)">
    <g
       id="g3714"
       transform="matrix(9.908954,0,0,-9.908954,568.04326,583.42973)">
      <path
         inkscape:connector-curvature="0"
         d="m 0,0 -3.128,1.438 c -2.19,0.94 -4.941,2.126 -4.941,5.255 0,1.627 1.188,3.752 3.751,3.752 2.566,0 3.63,-1.875 4.254,-3.065 0.689,-1.187 1.503,-2.566 3.442,-2.566 1.751,0 3.001,1.317 3.001,3.066 0,2.502 -2.814,6.694 -10.383,6.694 -7.942,0 -10.884,-4.754 -10.884,-9.193 0,-5.82 5.006,-8.258 6.882,-9.133 1.563,-0.75 5.224,-2.366 6.232,-3.216 0.839,-0.707 2.025,-1.726 2.025,-3.852 0,-2.313 -1.691,-3.877 -3.941,-3.877 -2.501,0 -3.628,1.624 -5.129,3.752 -0.877,1.188 -1.752,2.437 -3.504,2.437 -1.812,0 -3.191,-1.5 -3.191,-3.376 0,-2.501 3.004,-7.568 11.636,-7.568 9.319,0 11.258,6.319 11.258,9.819 C 7.38,-3.627 2.878,-1.376 0,0"
         style="fill:#559821;fill-opacity:1;fill-rule:nonzero;stroke:none"
         id="path3716" />
    </g>
    <g
       id="g3718"
       transform="matrix(9.908954,0,0,-9.908954,397.67166,384.71652)">
      <path
         inkscape:connector-curvature="0"
         d="m 0,0 c 0.132,1.263 -0.379,2.144 -0.893,2.951 -1.177,1.704 -1.827,2.676 -1.655,4.31 0.25,2.383 2.299,3.972 4.829,3.707 C 5.107,10.67 7.557,8.23 7.071,3.619 6.336,-3.375 -0.456,-8.606 -2.775,-8.362 c -0.952,0.1 -1.544,0.917 -1.45,1.811 0.071,0.667 0.333,1.017 0.915,1.558 C -1.463,-3.158 -0.18,-1.712 0,0"
         style="fill:#559821;fill-opacity:1;fill-rule:nonzero;stroke:none"
         id="path3720" />
    </g>
    <g
       id="g3722"
       transform="matrix(9.908954,0,0,-9.908954,364.40334,517.06452)">
      <path
         inkscape:connector-curvature="0"
         d="m 0,0 c -2.652,2.526 -3.524,2.04 -5.258,7.312 -0.844,2.567 -2.408,5.656 -5.051,6.557 -4.596,1.57 -9.421,-1.894 -12.582,-4.949 -3.368,-3.253 -4.806,-6.989 -13.495,-12.837 -2.434,-1.631 -5.371,-2.731 -8.24,-3.264 -3.606,-0.67 -6.637,0.393 -10.164,0.689 -6.704,0.57 -11.909,-1.99 -11.922,-5.997 -0.01,-4.006 10.215,-10.888 18.822,-12.448 11.008,-1.991 19.859,-1.444 25.714,0.337 10.592,3.224 16.418,7.266 21.358,12.232 C 2.449,-9.092 4.28,-4.076 0,0"
         style="fill:#ee2722;fill-opacity:1;fill-rule:evenodd;stroke:none"
         id="path3724" />
    </g>
    <g
       id="g3726"
       transform="matrix(9.908954,0,0,-9.908954,189.00494,521.24016)">
      <path
         inkscape:connector-curvature="0"
         d="m 0,0 c -7.52,-5.789 -10.821,-8.293 -11.816,-5.696 -0.545,1.421 1.823,2.331 3.899,4.341 2.624,2.538 5.711,6.543 8.617,8.871 3.373,2.702 5.474,1.943 6.213,0.313 C 8.01,5.412 4.179,3.217 0,0 m -15.917,-10.572 c -2.252,-0.924 -5.989,-1.034 -6.278,0.314 -0.204,0.945 1.686,0.489 3.805,1.683 2.767,1.559 3.593,2.388 4.352,1.655 0.946,-0.913 0.959,-2.492 -1.879,-3.652"
         style="fill:#ffffff;fill-opacity:1;fill-rule:evenodd;stroke:none"
         id="path3728" />
    </g>
    <g
       id="g3814"
       transform="matrix(9.908954,0,0,-9.908954,671.17367,743.79624)">
    </g>
  </g>
</svg>
